<?xml version="1.0" standalone="no"?>
<!DOCTYPE svg PUBLIC "-//W3C//DTD SVG 20010904//EN"
 "http://www.w3.org/TR/2001/REC-SVG-20010904/DTD/svg10.dtd">
<svg version="1.0" xmlns="http://www.w3.org/2000/svg"
 width="2048.000000pt" height="2048.000000pt" viewBox="0 0 2048.000000 2048.000000"
 preserveAspectRatio="xMidYMid meet">
<metadata>
Created by potrace 1.11, written by Peter Selinger 2001-2013
</metadata>
<g transform="translate(0.000000,2048.000000) scale(0.100000,-0.100000)"
fill="#000000" stroke="none">
<path d="M0 10240 l0 -7680 10240 0 10240 0 0 7680 0 7680 -10240 0 -10240 0
0 -7680z m11589 5953 c42 -159 40 -394 -3 -551 -30 -107 -76 -212 -131 -298
l-39 -59 -8 45 c-11 62 -53 119 -117 157 -115 69 -236 65 -318 -10 l-23 -20
59 -62 c305 -317 340 -830 110 -1579 -17 -55 -33 -106 -37 -115 -3 -9 15 11
40 44 103 138 234 227 415 281 75 23 107 27 223 28 158 1 221 -13 348 -75 46
-22 82 -42 80 -44 -2 -2 -37 2 -79 8 -107 15 -212 -6 -339 -69 -80 -40 -109
-61 -185 -138 -126 -128 -196 -256 -249 -456 -64 -239 -81 -474 -80 -1105 0
-533 8 -707 55 -1120 41 -369 133 -920 152 -908 5 3 40 53 79 112 194 293 311
629 343 981 4 41 14 87 21 102 45 87 241 76 324 -18 16 -19 36 -57 45 -86 17
-59 20 -193 5 -283 -43 -271 -19 -418 85 -514 38 -35 118 -72 129 -60 3 2 41
202 86 444 85 457 100 511 151 548 65 47 176 28 255 -45 110 -101 104 -285
-15 -505 l-31 -56 55 6 c176 18 368 207 464 457 16 41 52 152 80 246 89 301
158 441 264 541 137 130 348 170 501 94 138 -68 170 -168 146 -469 -15 -200
-6 -256 49 -313 68 -72 49 -104 302 506 126 303 230 553 231 557 2 4 57 -25
123 -64 66 -39 179 -105 251 -148 l131 -78 16 79 c42 212 196 394 427 502 302
142 641 126 894 -44 133 -89 271 -249 349 -405 38 -75 92 -237 113 -339 29
-136 26 -451 -4 -591 -143 -661 -662 -1241 -1752 -1956 -367 -241 -618 -391
-1390 -828 -948 -537 -1370 -797 -1787 -1102 -908 -663 -1379 -1242 -1477
-1817 -20 -120 -21 -322 -1 -437 71 -403 334 -769 695 -964 l95 -51 -120 5
c-78 3 -146 12 -194 26 -408 116 -738 514 -838 1010 -27 131 -24 384 6 520 67
314 223 626 459 920 104 129 398 422 557 554 490 407 1018 752 2190 1431 577
334 682 396 980 579 744 455 1347 913 1755 1332 396 407 580 772 580 1151 0
146 -21 239 -81 353 -152 293 -509 495 -800 451 -165 -25 -299 -129 -378 -294
-46 -95 -68 -176 -111 -412 -51 -278 -112 -428 -215 -531 -78 -79 -143 -108
-235 -109 -63 0 -84 5 -132 29 -68 34 -122 87 -152 150 l-22 46 -32 -82 c-128
-334 -415 -620 -758 -752 -167 -65 -259 -77 -624 -86 -364 -9 -401 -15 -535
-80 -44 -21 -116 -68 -160 -104 -44 -35 -124 -100 -178 -144 -107 -87 -194
-135 -276 -153 -145 -31 -347 76 -382 202 -9 36 -9 52 3 87 l16 42 -27 0 c-38
0 -124 -53 -158 -97 -70 -89 -100 -176 -128 -378 -34 -251 -81 -351 -189 -407
-57 -30 -165 -30 -222 0 -67 35 -73 51 -79 224 -14 406 -108 759 -288 1086
-34 62 -53 88 -58 79 -5 -7 -13 -122 -20 -254 -25 -497 27 -1018 151 -1520 79
-319 182 -619 309 -902 28 -63 51 -118 51 -121 0 -4 -19 -15 -41 -26 -150 -67
-340 52 -458 289 -61 121 -74 172 -100 377 -43 334 -98 496 -206 604 -45 44
-134 96 -166 96 -15 0 -14 -7 7 -64 56 -156 49 -348 -19 -511 -49 -117 -122
-207 -253 -312 -176 -139 -259 -316 -285 -608 -11 -125 -7 -257 16 -560 33
-427 29 -647 -15 -834 -24 -98 -68 -213 -106 -272 l-27 -43 -91 95 c-384 401
-555 980 -449 1530 16 83 16 88 -3 120 -12 21 -38 43 -69 59 -44 22 -63 25
-150 25 -120 -1 -136 -5 -338 -106 -499 -249 -906 -546 -1302 -950 -659 -673
-976 -1328 -890 -1839 38 -231 133 -410 301 -570 269 -256 648 -377 1269 -405
130 -6 493 7 594 21 l44 7 -5 -48 c-10 -82 -82 -139 -226 -176 -132 -34 -738
-27 -992 12 -532 80 -882 275 -1092 610 -230 366 -236 870 -17 1421 292 734
1048 1531 1939 2044 242 139 596 300 858 390 l84 29 -5 47 c-12 97 -82 190
-185 242 -154 78 -379 79 -554 4 -93 -40 -208 -137 -452 -383 -243 -244 -317
-304 -439 -360 -208 -96 -527 -16 -654 162 -18 25 -36 62 -39 82 -4 20 -10 42
-13 49 -4 7 -44 -157 -88 -363 -45 -207 -91 -396 -103 -420 -28 -59 -77 -89
-132 -82 -71 10 -125 82 -158 214 l-21 80 91 1928 c50 1060 88 1930 86 1932
-3 3 -87 -71 -188 -164 -514 -473 -832 -722 -1208 -946 -145 -86 -302 -163
-555 -272 -334 -144 -459 -218 -595 -355 -139 -139 -210 -304 -210 -489 0
-145 35 -244 118 -334 56 -59 159 -113 238 -123 260 -32 574 232 790 666 158
318 320 529 492 644 111 73 161 90 277 90 92 1 105 -1 167 -31 184 -87 265
-246 255 -503 -10 -264 -77 -406 -361 -763 -205 -258 -283 -380 -335 -523
l-29 -80 51 -41 c268 -210 494 -522 631 -875 165 -421 200 -919 97 -1344 -56
-227 -145 -435 -263 -614 -70 -107 -210 -258 -308 -331 -415 -313 -866 -198
-1010 256 -30 94 -39 317 -17 420 52 246 227 495 508 725 59 48 175 136 259
196 90 63 165 125 182 148 104 142 115 337 28 512 -66 134 -185 227 -345 269
-87 23 -260 21 -357 -4 -173 -45 -285 -116 -518 -331 -234 -216 -298 -262
-442 -316 -65 -25 -86 -28 -198 -28 -117 -1 -129 1 -182 27 -67 33 -130 99
-146 155 -17 55 -15 160 4 214 30 90 110 158 185 158 32 0 32 0 13 -21 -30
-33 -25 -108 10 -153 44 -58 71 -71 146 -70 78 1 138 24 313 120 305 168 470
313 553 489 76 158 68 320 -22 486 -32 58 -103 128 -165 160 -40 21 -58 24
-179 25 -154 1 -216 12 -315 60 -216 103 -385 350 -450 659 -26 119 -24 315 4
429 43 177 125 353 257 549 100 147 187 254 446 544 284 319 403 468 543 678
195 293 331 552 454 865 118 299 136 379 135 595 -1 130 -5 174 -22 236 -53
196 -149 302 -302 334 l-55 12 46 45 c63 62 125 82 233 76 65 -3 96 -11 149
-35 270 -127 326 -435 173 -963 -248 -859 -689 -1616 -1318 -2265 -77 -80
-134 -143 -127 -141 8 3 59 16 114 30 570 143 1145 487 1600 957 569 588 922
1331 995 2099 7 69 19 140 28 158 32 70 136 108 248 90 167 -26 253 -149 242
-347 -7 -117 -46 -226 -159 -453 -122 -243 -140 -296 -146 -429 -3 -60 -1
-114 4 -124 8 -14 278 232 1719 1572 1792 1664 1838 1706 2000 1846 136 117
378 297 506 376 104 66 340 191 357 191 6 0 15 -17 20 -37z m520 -2550 c37
-42 26 -94 -57 -260 -114 -229 -241 -439 -385 -642 -132 -184 -180 -242 -189
-228 -13 20 -9 159 7 251 23 132 67 257 149 421 135 271 238 420 320 462 75
39 117 38 155 -4z"/>
<path d="M10638 15061 c-116 -38 -154 -66 -683 -505 -1092 -905 -1739 -1495
-2295 -2091 -384 -412 -517 -598 -594 -829 -91 -274 -40 -555 133 -738 83 -89
164 -130 326 -164 232 -48 291 -64 344 -91 58 -30 106 -81 116 -125 7 -25 5
-27 -41 -34 -71 -10 -272 3 -384 26 -199 41 -409 134 -573 255 -48 36 -89 65
-91 65 -13 0 -112 -387 -150 -585 -60 -315 -85 -562 -93 -922 -7 -350 17 -771
40 -698 3 11 69 242 147 514 77 271 151 514 164 540 13 25 35 56 48 69 54 49
140 48 188 -3 l24 -26 -54 -487 c-60 -535 -67 -674 -36 -777 33 -115 115 -203
219 -239 65 -22 103 -20 163 8 56 26 95 70 114 130 20 62 7 230 -30 381 -40
167 -49 313 -26 405 51 203 202 369 380 416 157 42 349 -11 472 -131 54 -53
89 -114 119 -204 21 -65 78 -126 150 -161 42 -20 65 -24 145 -25 87 0 99 2
149 30 103 57 98 31 105 490 14 865 48 1660 106 2495 35 492 70 904 82 939 16
50 81 115 141 142 40 18 71 23 137 23 74 1 93 -3 144 -28 153 -75 253 -244
326 -551 90 -381 101 -796 30 -1165 -10 -52 -17 -96 -15 -98 1 -2 30 8 63 21
160 65 308 212 402 397 103 205 138 398 160 900 33 718 110 1325 257 2011 51
242 51 264 0 330 -72 94 -206 131 -329 90z"/>
<path d="M9625 12830 c-37 -60 -212 -2450 -180 -2450 18 0 99 70 143 123 100
122 168 312 201 562 39 292 68 1354 42 1525 -14 90 -60 191 -101 220 -37 26
-94 37 -105 20z"/>
<path d="M13938 11513 c-190 -320 -327 -581 -358 -682 -11 -35 -20 -86 -20
-113 l0 -51 68 5 c173 13 356 148 449 331 60 120 81 330 48 477 -18 79 -64
210 -74 210 -4 0 -55 -80 -113 -177z"/>
<path d="M10753 11426 c-63 -20 -124 -59 -221 -140 -515 -431 -673 -944 -420
-1371 61 -102 176 -213 268 -258 73 -36 183 -67 195 -55 4 3 19 255 35 560 16
304 31 587 35 628 19 237 95 379 221 416 31 9 60 25 69 37 31 44 9 139 -40
171 -34 23 -94 28 -142 12z"/>
<path d="M5653 9932 c-336 -235 -580 -568 -702 -958 -41 -131 -57 -246 -42
-300 36 -132 151 -156 262 -56 27 24 63 63 78 86 39 57 591 1014 608 1053 20
50 17 115 -10 154 -23 34 -81 79 -101 79 -6 -1 -48 -27 -93 -58z"/>
<path d="M9448 9949 c-21 -12 -24 -39 -5 -39 7 0 12 -15 12 -39 1 -61 48 -117
105 -123 20 -3 25 3 31 32 25 112 -64 216 -143 169z"/>
<path d="M9957 9418 c-99 -221 -168 -454 -207 -692 -11 -66 -20 -125 -20 -130
0 -5 30 -6 67 -3 175 17 339 167 388 354 43 164 -18 396 -140 531 l-41 45 -47
-105z"/>
<path d="M8063 9252 c-34 -22 -123 -285 -123 -362 0 -32 25 -57 77 -76 47 -16
63 -17 63 -3 0 6 23 37 52 68 96 105 121 204 75 292 -31 58 -111 103 -144 81z"/>
<path d="M5034 8216 c-9 -24 16 -138 43 -195 51 -107 185 -213 304 -240 57
-14 126 -14 134 -1 4 6 -6 47 -20 91 -23 68 -35 87 -82 132 -95 90 -205 160
-323 207 -42 16 -52 17 -56 6z"/>
<path d="M9461 8096 c-56 -136 -75 -233 -74 -396 0 -123 4 -160 27 -245 25
-97 118 -305 135 -305 10 0 43 119 62 220 19 101 16 348 -5 460 -23 118 -95
340 -110 340 -2 0 -18 -33 -35 -74z"/>
<path d="M5758 6842 c-281 -321 -689 -792 -736 -851 -75 -93 -139 -204 -164
-284 -29 -98 -23 -219 17 -302 53 -111 156 -185 257 -185 201 0 569 389 739
781 100 230 142 435 143 689 1 194 -7 225 -64 255 -65 33 -80 25 -192 -103z"/>
</g>
</svg>
