<?xml version="1.0" standalone="no"?>
<!DOCTYPE svg PUBLIC "-//W3C//DTD SVG 20010904//EN"
 "http://www.w3.org/TR/2001/REC-SVG-20010904/DTD/svg10.dtd">
<svg version="1.0" xmlns="http://www.w3.org/2000/svg"
 width="2048.000000pt" height="2048.000000pt" viewBox="0 0 2048.000000 2048.000000"
 preserveAspectRatio="xMidYMid meet">
<metadata>
Created by potrace 1.11, written by Peter Selinger 2001-2013
</metadata>
<g transform="translate(0.000000,2048.000000) scale(0.100000,-0.100000)"
fill="#000000" stroke="none">
<path d="M11435 16166 c-147 -76 -258 -142 -378 -228 -90 -64 -296 -224 -351
-273 -6 -5 -45 -39 -86 -75 -76 -66 -111 -97 -233 -210 -37 -35 -76 -71 -87
-80 -16 -14 -138 -127 -290 -270 -21 -19 -86 -80 -145 -135 -60 -55 -123 -114
-141 -131 -19 -17 -79 -73 -135 -125 -56 -52 -109 -101 -118 -109 -9 -9 -77
-72 -151 -140 -74 -69 -146 -136 -161 -150 -22 -21 -129 -121 -273 -254 -17
-16 -80 -74 -140 -130 -153 -143 -160 -150 -282 -263 -60 -55 -122 -114 -139
-129 -16 -15 -84 -77 -149 -138 -66 -61 -147 -136 -180 -167 -34 -31 -79 -73
-101 -94 -22 -20 -92 -85 -155 -144 -63 -58 -129 -119 -146 -136 -18 -16 -78
-73 -134 -125 -57 -52 -120 -111 -140 -130 -53 -49 -234 -218 -283 -262 -22
-21 -42 -36 -43 -35 -6 6 -14 66 -15 113 -2 116 32 217 160 472 101 200 136
296 148 398 28 239 -89 389 -302 388 -50 0 -81 -6 -110 -21 -71 -37 -89 -68
-99 -173 -13 -121 -26 -234 -32 -265 -2 -11 -7 -33 -9 -50 -96 -562 -368
-1140 -763 -1625 -77 -94 -349 -375 -427 -440 -413 -348 -841 -584 -1296 -713
-159 -45 -182 -50 -177 -38 1 5 57 65 123 133 145 149 189 197 280 308 462
556 781 1148 1008 1865 32 102 84 306 92 365 3 25 8 53 11 63 11 35 7 233 -5
292 -19 90 -74 198 -129 250 -48 47 -140 96 -202 110 -66 14 -165 8 -218 -15
-47 -20 -132 -94 -121 -105 3 -3 29 -9 57 -15 109 -20 187 -85 246 -203 20
-41 44 -108 53 -148 17 -77 23 -297 11 -379 -37 -249 -241 -739 -456 -1095
-107 -177 -266 -408 -348 -505 -114 -135 -217 -253 -300 -345 -54 -60 -126
-141 -159 -180 -33 -38 -63 -72 -66 -75 -40 -33 -243 -305 -307 -411 -147
-245 -212 -441 -217 -651 -8 -377 185 -752 460 -891 96 -48 159 -61 310 -62
120 0 147 -4 186 -22 166 -75 275 -316 237 -523 -35 -194 -211 -391 -494 -555
-43 -25 -86 -50 -94 -55 -50 -31 -210 -104 -249 -114 -102 -27 -189 2 -228 77
-22 43 -21 111 2 137 18 20 18 20 -21 20 -76 0 -160 -79 -185 -175 -24 -89
-13 -189 30 -258 48 -78 168 -130 296 -130 129 0 269 47 390 131 49 34 183
149 237 203 50 51 212 191 252 218 152 104 300 151 476 152 320 3 549 -200
564 -498 8 -158 -48 -288 -159 -370 -17 -13 -91 -66 -165 -120 -242 -174 -372
-292 -502 -453 -33 -42 -138 -204 -138 -215 -1 -3 -10 -26 -21 -52 -42 -98
-62 -201 -62 -328 1 -127 1 -133 28 -234 74 -286 313 -470 583 -448 70 6 78 7
152 27 191 51 433 246 582 469 220 329 330 713 329 1146 0 130 -3 187 -16 275
-3 19 -7 49 -9 65 -44 337 -202 716 -425 1015 -61 83 -285 311 -344 350 -43
29 -44 40 -16 112 56 145 141 279 316 498 160 202 237 311 286 408 126 252
135 553 22 733 -73 114 -213 190 -351 190 -253 0 -517 -246 -746 -696 -87
-171 -148 -271 -225 -367 -170 -214 -350 -332 -518 -342 -195 -11 -357 115
-411 319 -13 50 -13 219 0 278 30 131 93 244 193 345 121 121 257 206 503 313
63 28 129 57 145 64 17 7 77 34 135 60 322 142 652 351 1015 644 72 58 132
107 135 110 3 3 37 33 75 66 39 33 86 74 105 91 19 18 47 42 61 55 174 156
209 188 299 273 82 78 80 79 75 -16 -2 -46 -6 -137 -10 -203 -6 -141 -13 -274
-20 -440 -3 -66 -7 -160 -10 -210 -8 -156 -15 -296 -20 -420 -3 -66 -7 -165
-10 -220 -9 -198 -22 -466 -30 -635 -3 -63 -8 -164 -10 -225 -3 -60 -8 -155
-10 -210 -3 -55 -7 -145 -10 -200 -2 -55 -7 -154 -10 -220 -8 -187 -15 -322
-20 -420 -15 -260 -15 -400 1 -459 46 -176 144 -256 241 -196 58 35 66 60 148
440 25 118 52 242 60 275 7 33 16 75 20 93 7 34 25 35 25 1 0 -34 40 -99 91
-149 94 -91 229 -142 388 -145 197 -5 344 78 592 331 318 325 390 388 496 439
29 14 55 26 58 26 2 0 22 6 43 13 52 19 134 29 217 28 105 -2 158 -14 245 -55
114 -54 199 -167 196 -260 -1 -30 -4 -32 -142 -82 -246 -91 -588 -247 -752
-344 -29 -17 -57 -31 -62 -31 -6 0 -10 -4 -10 -10 0 -5 -5 -10 -11 -10 -12 0
-224 -131 -319 -198 -78 -54 -240 -173 -256 -187 -7 -5 -29 -23 -50 -40 -185
-146 -523 -469 -661 -630 -77 -91 -182 -222 -240 -300 -29 -38 -56 -74 -60
-80 -5 -5 -40 -59 -78 -120 -171 -273 -313 -616 -360 -870 -2 -11 -6 -29 -9
-41 -2 -12 -7 -43 -10 -70 -4 -27 -9 -65 -11 -84 -6 -47 -6 -264 0 -320 15
-133 60 -291 116 -404 136 -275 397 -493 724 -606 88 -31 254 -74 329 -86 21
-3 46 -7 55 -9 9 -2 44 -6 76 -10 33 -4 68 -9 78 -11 92 -16 681 -25 802 -12
106 12 210 55 264 109 29 28 45 67 46 109 0 17 -8 17 -230 5 -265 -15 -680 -4
-765 19 -8 3 -37 7 -65 11 -194 24 -398 85 -570 172 -304 154 -486 376 -566
690 -31 125 -32 344 0 493 75 360 277 728 624 1143 174 207 420 456 553 560
16 12 40 33 54 47 65 65 401 307 563 406 229 139 521 286 617 310 88 22 204
13 269 -21 64 -33 77 -83 51 -198 -24 -108 -33 -387 -17 -502 51 -347 162
-622 354 -870 57 -74 201 -225 214 -225 4 0 28 42 53 93 48 98 89 240 103 353
15 128 7 574 -13 729 -2 17 -7 89 -11 160 -31 563 44 801 322 1010 123 93 214
237 255 405 22 87 17 250 -9 345 -12 43 -27 86 -34 93 -17 22 43 6 96 -24 148
-83 244 -295 282 -619 3 -27 8 -68 10 -90 3 -22 7 -56 9 -75 19 -157 112 -346
227 -458 97 -95 205 -129 304 -94 62 21 63 33 6 154 -52 111 -130 306 -170
428 -18 52 -36 104 -41 115 -5 11 -27 88 -49 170 -23 83 -46 166 -51 185 -20
72 -60 270 -84 420 -30 179 -30 182 -51 395 -19 193 -24 541 -11 765 6 118 12
193 15 210 4 18 135 -240 181 -355 29 -72 94 -282 104 -335 3 -14 10 -50 16
-80 6 -30 13 -71 16 -90 2 -19 6 -44 9 -55 7 -36 17 -189 19 -303 1 -95 5
-115 22 -139 33 -45 89 -67 169 -67 177 -1 260 114 300 414 3 25 8 57 10 71 3
14 7 41 9 60 8 62 45 163 77 214 40 63 82 102 137 126 59 26 76 25 68 -3 -15
-50 -17 -80 -6 -112 39 -119 196 -210 347 -201 99 6 223 72 355 190 182 162
289 228 429 264 99 25 209 33 465 34 214 0 334 11 441 42 298 83 565 276 740
535 56 83 120 206 149 288 l18 53 22 -48 c26 -61 83 -116 154 -151 76 -37 182
-38 254 -3 52 26 166 127 166 148 0 6 3 13 8 15 20 9 103 197 118 270 8 41 36
182 40 208 59 342 140 511 294 610 304 195 825 -20 1007 -416 14 -30 26 -60
27 -67 2 -7 6 -19 9 -27 16 -38 28 -150 26 -239 -6 -315 -130 -604 -407 -946
-70 -87 -332 -351 -451 -455 -107 -94 -108 -95 -153 -132 -23 -18 -53 -43 -67
-55 -87 -73 -161 -131 -276 -216 -71 -53 -135 -100 -140 -104 -124 -94 -389
-273 -640 -433 -168 -106 -446 -277 -512 -315 -22 -12 -312 -183 -333 -195
-32 -20 -128 -74 -180 -103 -30 -16 -62 -36 -71 -43 -8 -8 -18 -14 -21 -14 -4
0 -52 -27 -108 -60 -56 -33 -103 -60 -105 -60 -2 0 -90 -50 -155 -90 -8 -5
-55 -32 -105 -61 -831 -484 -1481 -926 -1875 -1274 -110 -97 -308 -293 -375
-370 -276 -319 -448 -624 -529 -940 -51 -201 -62 -452 -26 -595 5 -19 12 -50
15 -67 11 -64 58 -200 102 -293 131 -278 327 -484 568 -601 125 -61 203 -80
345 -85 l125 -5 -80 43 c-297 160 -489 376 -638 718 -15 35 -59 191 -73 260
-10 55 -14 340 -4 390 4 25 11 61 14 80 9 57 44 174 76 257 142 360 437 734
876 1110 12 10 47 40 78 67 31 27 72 61 91 75 19 14 74 58 123 96 117 92 139
109 241 182 47 34 91 66 96 70 6 4 46 33 90 63 44 29 100 68 125 85 88 61 428
275 601 378 168 101 857 497 864 497 2 0 49 27 105 60 56 33 103 60 105 60 3
0 220 124 245 140 8 5 48 28 89 51 189 106 607 360 796 485 66 43 127 83 137
89 119 73 658 473 708 525 3 3 37 32 75 64 102 87 317 300 383 380 31 37 70
82 85 100 59 66 207 299 265 417 34 68 77 172 96 231 35 107 41 130 52 198 3
19 7 41 10 48 6 20 17 167 18 237 2 550 -294 1021 -719 1143 -347 100 -772
-33 -973 -303 -51 -69 -106 -181 -117 -240 -15 -82 -16 -90 -20 -93 -2 -2
-115 62 -251 142 -136 80 -249 145 -250 143 -3 -3 -434 -1038 -438 -1052 -1
-5 -9 -22 -16 -37 -12 -25 -14 -26 -39 -13 -75 38 -96 99 -91 255 9 272 6 373
-14 423 -23 60 -79 118 -142 148 -66 31 -231 34 -314 5 -101 -35 -181 -95
-247 -187 -78 -106 -121 -209 -203 -486 -71 -240 -102 -312 -187 -434 -80
-116 -170 -190 -275 -228 -35 -13 -118 -25 -118 -17 0 4 15 37 34 74 62 124
80 189 80 282 0 69 -4 93 -22 128 -43 81 -116 131 -204 140 -107 10 -171 -61
-194 -218 -3 -19 -12 -70 -20 -113 -9 -42 -17 -90 -20 -105 -5 -30 -41 -223
-49 -262 -4 -23 -18 -96 -29 -160 -4 -23 -18 -94 -22 -112 -1 -5 -2 -17 -3
-28 -1 -17 -6 -19 -32 -15 -148 26 -232 211 -205 450 4 32 9 62 11 65 3 5 12
94 19 181 5 57 -12 156 -33 197 -42 81 -132 131 -228 126 -95 -5 -137 -42
-147 -134 -3 -30 -8 -80 -11 -110 -24 -221 -100 -469 -214 -695 -56 -110 -186
-315 -200 -315 -4 0 -13 30 -20 68 -30 157 -42 224 -61 347 -12 72 -23 141
-25 155 -4 24 -22 160 -30 225 -2 17 -6 50 -9 75 -3 25 -8 72 -12 105 -3 33
-7 76 -10 95 -2 19 -6 76 -9 125 -3 50 -8 104 -10 120 -26 192 -26 1287 0
1423 1 9 6 49 9 87 4 39 8 80 10 90 2 11 7 40 11 65 38 241 129 448 262 590
55 60 192 160 218 160 7 0 15 4 17 8 2 4 37 19 78 32 79 25 199 32 274 16 56
-12 40 4 -46 46 -113 55 -195 73 -328 73 -135 0 -182 -6 -270 -35 -157 -53
-303 -153 -384 -265 -25 -35 -29 -8 -8 57 52 160 116 428 128 537 3 30 10 77
14 105 5 28 7 134 6 236 -3 162 -7 198 -31 290 -26 101 -97 265 -133 308 -9
12 -25 31 -35 44 -9 13 -38 45 -64 71 -55 56 -53 68 21 106 92 47 239 20 316
-59 40 -41 70 -102 70 -142 l0 -33 30 45 c160 238 218 528 165 815 -7 38 -25
105 -28 105 -1 -1 -65 -34 -142 -74z m-612 -1100 c62 -18 109 -51 147 -103 42
-58 45 -100 16 -223 -14 -58 -27 -116 -29 -130 -3 -14 -19 -95 -36 -180 -17
-85 -33 -164 -35 -175 -24 -136 -75 -462 -81 -515 -4 -35 -16 -130 -20 -160
-3 -23 -7 -52 -20 -172 -12 -114 -14 -137 -20 -208 -3 -41 -8 -97 -10 -125 -8
-86 -14 -176 -20 -305 -11 -246 -14 -306 -20 -410 -4 -58 -8 -112 -10 -120 -2
-8 -7 -42 -11 -75 -7 -69 -7 -65 -29 -165 -72 -316 -255 -562 -492 -663 -70
-29 -68 -32 -53 58 6 33 13 78 16 100 3 22 7 49 9 60 27 128 27 544 0 735 -29
211 -81 430 -126 530 -99 221 -213 325 -369 337 -151 12 -291 -70 -314 -183
-5 -29 -10 -73 -20 -189 -3 -33 -8 -85 -11 -116 -9 -106 -15 -177 -30 -384
-10 -139 -14 -188 -20 -275 -3 -47 -7 -114 -10 -150 -6 -78 -13 -190 -20 -325
-3 -55 -7 -129 -10 -165 -2 -36 -6 -121 -10 -190 -3 -69 -8 -161 -10 -205 -2
-44 -7 -156 -10 -250 -3 -93 -8 -206 -10 -250 -4 -79 -15 -495 -20 -730 -2
-66 -4 -226 -4 -355 l-1 -236 -36 -38 c-53 -56 -114 -80 -204 -81 -84 0 -112
5 -161 31 -84 43 -119 87 -157 196 -53 151 -198 271 -367 302 -162 31 -309
-17 -430 -139 -113 -112 -173 -249 -179 -402 -2 -68 23 -222 58 -348 1 -5 6
-32 10 -60 4 -27 10 -61 12 -75 3 -14 5 -56 5 -93 -1 -149 -84 -241 -218 -240
-150 2 -274 133 -301 320 -11 80 -6 244 13 363 2 14 7 52 10 85 10 99 15 148
20 180 2 17 7 62 10 100 3 39 8 77 10 85 2 8 7 49 10 90 4 41 9 83 11 93 2 10
6 60 10 112 6 92 6 94 -20 118 -57 53 -142 43 -200 -25 -40 -46 -58 -97 -146
-408 -33 -118 -74 -262 -91 -320 -17 -58 -39 -134 -49 -170 -51 -178 -62 -212
-65 -208 -1 1 -5 21 -8 43 -29 213 -30 860 -2 1080 2 17 7 55 10 85 5 54 31
237 41 295 37 213 81 406 134 590 17 60 33 111 35 113 2 2 32 -19 67 -46 149
-117 324 -203 518 -255 49 -13 73 -18 160 -34 43 -8 314 -13 337 -7 22 6 22 7
7 43 -40 96 -149 152 -362 186 -69 11 -178 36 -222 51 -222 76 -371 312 -373
594 -1 117 5 161 35 258 71 233 221 444 598 847 177 190 790 792 920 905 12
10 60 54 107 97 128 116 133 121 198 176 32 29 84 75 115 102 31 28 82 73 114
100 32 28 63 55 69 60 7 6 77 66 157 134 80 67 165 140 190 162 25 21 92 77
150 125 58 47 128 105 155 129 28 23 106 89 175 145 178 146 212 174 224 185
6 6 31 26 56 46 25 20 59 49 75 63 61 54 197 139 258 160 79 28 135 31 200 12z
m-1085 -2269 c37 -35 64 -88 84 -163 22 -83 18 -895 -7 -1254 -9 -139 -22
-277 -30 -325 -3 -16 -7 -49 -10 -71 -8 -66 -53 -229 -81 -297 -48 -113 -127
-220 -211 -284 -28 -22 -61 -24 -49 -4 3 4 8 68 11 142 3 73 8 163 10 199 2
36 7 117 10 180 4 63 8 135 10 160 2 25 6 92 10 150 3 58 8 130 10 160 2 30 7
87 9 125 9 126 17 226 21 263 1 20 6 81 10 136 4 54 8 106 10 115 2 10 6 61
10 114 3 54 8 105 10 115 1 9 6 58 10 107 3 50 8 101 10 115 2 14 6 57 10 95
14 174 25 249 37 256 22 14 74 -3 106 -34z m4327 -1136 c68 -132 93 -345 59
-507 -23 -114 -92 -245 -169 -319 -95 -93 -248 -165 -351 -165 l-43 0 3 68 c3
70 50 200 103 285 13 20 20 37 17 37 -4 0 -2 6 4 13 10 13 27 41 84 147 66
121 148 263 235 405 7 11 18 30 24 43 15 28 15 28 34 -7z m-3183 -243 c29 -11
68 -78 68 -117 0 -45 -31 -81 -75 -88 -33 -6 -101 -51 -127 -85 -72 -94 -100
-211 -113 -463 -3 -66 -8 -151 -10 -190 -2 -38 -7 -128 -10 -200 -3 -71 -8
-161 -10 -200 -3 -38 -7 -117 -10 -175 -11 -221 -16 -294 -20 -298 -15 -16
-154 32 -241 81 -120 69 -245 241 -302 417 -111 339 28 736 374 1070 237 229
361 293 476 248z m-5108 -1442 c44 -18 86 -75 93 -124 10 -71 37 -19 -536
-1012 -82 -141 -126 -199 -184 -241 -91 -66 -179 -52 -224 36 -59 113 43 471
213 746 101 162 264 351 399 462 33 27 198 147 203 147 1 0 18 -6 36 -14z
m3783 -48 c21 -20 38 -71 36 -110 0 -10 -1 -29 -2 -43 -1 -21 -6 -25 -30 -25
-31 0 -75 30 -93 63 -6 12 -12 39 -13 62 -1 25 -6 39 -13 38 -21 -5 -13 24 11
35 30 15 76 6 104 -20z m551 -540 c36 -60 69 -148 80 -211 13 -76 7 -199 -13
-262 -54 -170 -218 -306 -387 -322 l-57 -6 5 39 c20 139 37 227 68 354 31 125
95 306 157 444 l44 98 35 -40 c19 -22 50 -64 68 -94z m-1935 -174 c88 -82 71
-210 -48 -341 -30 -33 -51 -63 -48 -67 4 -3 -9 -3 -28 0 -36 7 -89 32 -102 49
-20 27 17 188 75 322 22 53 36 73 52 75 31 5 68 -9 99 -38z m-2973 -1058 c82
-44 134 -81 205 -148 58 -53 66 -67 89 -138 15 -44 26 -83 26 -88 0 -10 -102
-9 -150 2 -141 33 -279 168 -318 312 -16 61 -18 84 -13 123 1 11 82 -20 161
-63z m4349 -120 c86 -260 98 -502 41 -761 -25 -112 -34 -128 -56 -100 -37 48
-107 215 -119 287 -3 17 -8 34 -10 38 -6 10 -17 107 -20 170 -5 139 29 314 86
447 19 45 21 47 34 29 8 -10 28 -60 44 -110z m-3606 -1087 c59 -32 76 -90 75
-250 -2 -311 -84 -604 -247 -889 -135 -237 -354 -471 -519 -554 -167 -85 -346
14 -402 222 -38 142 16 308 164 501 27 36 55 71 61 77 5 6 33 37 60 69 28 32
57 66 65 75 8 9 42 47 75 85 33 39 65 75 71 81 5 6 30 35 55 64 24 28 53 62
64 74 31 35 125 143 201 231 74 86 109 126 163 187 36 41 72 49 114 27z"/>
<path d="M11995 13668 c-81 -28 -141 -91 -232 -244 -159 -266 -243 -460 -277
-641 -16 -85 -21 -283 -8 -283 5 0 29 26 53 58 24 31 46 59 49 62 25 23 220
308 220 320 0 5 3 10 8 12 14 6 171 277 249 433 76 149 87 197 61 252 -17 36
-70 49 -123 31z"/>
</g>
</svg>
