<svg xmlns="http://www.w3.org/2000/svg" xmlns:xlink="http://www.w3.org/1999/xlink" xmlns:fi="http://pattern.flaticon.com/" x="0" y="0" width="700" height="350" viewBox="0 0 700 350"><rect x="0px" y="0px" width="100%" height="100%" opacity="1" fill="#ffffff"/><defs><g transform="matrix(1.2068965435028076 0 0 1.2068965435028076 315 315)" id="L1_636"><rect x="0px" y="0px" width="58px" height="58px" fill="#ecf0f1"/><rect x="0px" y="0px" width="58px" height="12px" fill="#546a79"/><circle cx="6" cy="6" r="3" fill="#ed7161"/><circle cx="15" cy="6" r="3" fill="#f0c419"/><circle cx="24" cy="6" r="3" fill="#4fba6f"/><rect x="6px" y="47px" width="46px" height="5px" fill="#71c285"/><rect x="6px" y="18px" width="46px" height="11px" fill="#71c285"/><g><path d="M7,34h19c0.552,0,1-0.448,1-1s-0.448-1-1-1H7c-0.552,0-1,0.448-1,1S6.448,34,7,34z" fill="#bdc3c7"/><path d="M7,38h44c0.552,0,1-0.448,1-1s-0.448-1-1-1H7c-0.552,0-1,0.448-1,1S6.448,38,7,38z" fill="#bdc3c7"/><path d="M51,40H7c-0.552,0-1,0.448-1,1s0.448,1,1,1h44c0.552,0,1-0.448,1-1S51.552,40,51,40z" fill="#bdc3c7"/></g></g><g transform="matrix(0.8620689511299133 0 0 0.8620689511299133 62.5 150)" id="L1_637"><rect x="0px" y="0px" width="58px" height="58px" fill="#ecf0f1"/><rect x="0px" y="0px" width="58px" height="12px" fill="#546a79"/><circle cx="6" cy="6" r="3" fill="#ed7161"/><circle cx="15" cy="6" r="3" fill="#f0c419"/><circle cx="24" cy="6" r="3" fill="#4fba6f"/><rect x="10px" y="27px" width="32px" height="6px" fill="#ffffff"/><rect x="42px" y="27px" width="6px" height="6px" fill="#95a5a5"/><rect x="19px" y="40px" width="8px" height="2px" fill="#bdc3c7"/><rect x="31px" y="40px" width="8px" height="2px" fill="#bdc3c7"/></g><g transform="matrix(0.8620689511299133 0 0 0.8620689511299133 150 325)" id="L1_638"><rect x="0px" y="0px" width="58px" height="58px" fill="#ecf0f1"/><rect x="0px" y="0px" width="58px" height="12px" fill="#546a79"/><circle cx="6" cy="6" r="3" fill="#ed7161"/><circle cx="15" cy="6" r="3" fill="#f0c419"/><circle cx="24" cy="6" r="3" fill="#4fba6f"/><path d="M0,12 0,31 6,31 6,25 18,25 18,31 23,31 23,25 35,25 35,31 40,31 40,25 52,25 52,31 58,31   58,12z" fill="#8697cb"/><path d="M17,44H7c-0.553,0-1-0.448-1-1s0.447-1,1-1h10c0.553,0,1,0.448,1,1S17.553,44,17,44z" fill="#bdc3c7"/><path d="M17,48H7c-0.553,0-1-0.448-1-1s0.447-1,1-1h10c0.553,0,1,0.448,1,1S17.553,48,17,48z" fill="#bdc3c7"/><path d="M17,52H7c-0.553,0-1-0.448-1-1s0.447-1,1-1h10c0.553,0,1,0.448,1,1S17.553,52,17,52z" fill="#bdc3c7"/><path d="M34,44H24c-0.553,0-1-0.448-1-1s0.447-1,1-1h10c0.553,0,1,0.448,1,1S34.553,44,34,44z" fill="#bdc3c7"/><path d="M34,48H24c-0.553,0-1-0.448-1-1s0.447-1,1-1h10c0.553,0,1,0.448,1,1S34.553,48,34,48z" fill="#bdc3c7"/><path d="M34,52H24c-0.553,0-1-0.448-1-1s0.447-1,1-1h10c0.553,0,1,0.448,1,1S34.553,52,34,52z" fill="#bdc3c7"/><path d="M51,44H41c-0.553,0-1-0.448-1-1s0.447-1,1-1h10c0.553,0,1,0.448,1,1S51.553,44,51,44z" fill="#bdc3c7"/><path d="M51,48H41c-0.553,0-1-0.448-1-1s0.447-1,1-1h10c0.553,0,1,0.448,1,1S51.553,48,51,48z" fill="#bdc3c7"/><path d="M51,52H41c-0.553,0-1-0.448-1-1s0.447-1,1-1h10c0.553,0,1,0.448,1,1S51.553,52,51,52z" fill="#bdc3c7"/><rect x="6px" y="25px" width="12px" height="12px" fill="#67b9cc"/><rect x="40px" y="25px" width="12px" height="12px" fill="#67b9cc"/><rect x="23px" y="25px" width="12px" height="12px" fill="#67b9cc"/></g><g transform="matrix(0.8620689511299133 0 0 0.8620689511299133 237.5 150)" id="L1_639"><rect x="0px" y="0px" width="58px" height="58px" fill="#8697cb"/><rect x="0px" y="0px" width="58px" height="12px" fill="#546a79"/><circle cx="6" cy="6" r="3" fill="#ed7161"/><circle cx="15" cy="6" r="3" fill="#f0c419"/><circle cx="24" cy="6" r="3" fill="#4fba6f"/><rect x="8px" y="19px" width="42px" height="30px" fill="#ffffff"/><rect x="8px" y="19px" width="42px" height="10px" fill="#556080"/><rect x="12px" y="23px" width="8px" height="2px" fill="#ffffff"/><path d="M42,27c-0.256,0-0.512-0.098-0.707-0.293c-0.391-0.391-0.391-1.023,0-1.414l4-4  c0.391-0.391,1.023-0.391,1.414,0s0.391,1.023,0,1.414l-4,4C42.512,26.902,42.256,27,42,27z" fill="#ffffff"/><path d="M46,27c-0.256,0-0.512-0.098-0.707-0.293l-4-4c-0.391-0.391-0.391-1.023,0-1.414s1.023-0.391,1.414,0  l4,4c0.391,0.391,0.391,1.023,0,1.414C46.512,26.902,46.256,27,46,27z" fill="#ffffff"/><g><rect x="14px" y="34px" width="15px" height="2px" fill="#bdc3c7"/><rect x="14px" y="38px" width="26px" height="2px" fill="#bdc3c7"/><rect x="14px" y="42px" width="26px" height="2px" fill="#bdc3c7"/></g></g></defs><g fi:class="KUsePattern"><pattern id="pattern_L1_636" width="350" height="350" patternUnits="userSpaceOnUse"><use xlink:href="#L1_636" x="-350" y="-350"/><use xlink:href="#L1_636" x="0" y="-350"/><use xlink:href="#L1_636" x="350" y="-350"/><use xlink:href="#L1_636" x="-350" y="0"/><use xlink:href="#L1_636" x="0" y="0"/><use xlink:href="#L1_636" x="350" y="0"/><use xlink:href="#L1_636" x="-350" y="350"/><use xlink:href="#L1_636" x="0" y="350"/><use xlink:href="#L1_636" x="350" y="350"/></pattern><rect x="0" y="0" width="100%" height="100%" fill="url(#pattern_L1_636)"/></g><g fi:class="KUsePattern"><pattern id="pattern_L1_637" width="350" height="350" patternUnits="userSpaceOnUse"><use xlink:href="#L1_637" x="-350" y="-350"/><use xlink:href="#L1_637" x="0" y="-350"/><use xlink:href="#L1_637" x="350" y="-350"/><use xlink:href="#L1_637" x="-350" y="0"/><use xlink:href="#L1_637" x="0" y="0"/><use xlink:href="#L1_637" x="350" y="0"/><use xlink:href="#L1_637" x="-350" y="350"/><use xlink:href="#L1_637" x="0" y="350"/><use xlink:href="#L1_637" x="350" y="350"/></pattern><rect x="0" y="0" width="100%" height="100%" fill="url(#pattern_L1_637)"/></g><g fi:class="KUsePattern"><pattern id="pattern_L1_638" width="350" height="350" patternUnits="userSpaceOnUse"><use xlink:href="#L1_638" x="-350" y="-350"/><use xlink:href="#L1_638" x="0" y="-350"/><use xlink:href="#L1_638" x="350" y="-350"/><use xlink:href="#L1_638" x="-350" y="0"/><use xlink:href="#L1_638" x="0" y="0"/><use xlink:href="#L1_638" x="350" y="0"/><use xlink:href="#L1_638" x="-350" y="350"/><use xlink:href="#L1_638" x="0" y="350"/><use xlink:href="#L1_638" x="350" y="350"/></pattern><rect x="0" y="0" width="100%" height="100%" fill="url(#pattern_L1_638)"/></g><g fi:class="KUsePattern"><pattern id="pattern_L1_639" width="350" height="350" patternUnits="userSpaceOnUse"><use xlink:href="#L1_639" x="-350" y="-350"/><use xlink:href="#L1_639" x="0" y="-350"/><use xlink:href="#L1_639" x="350" y="-350"/><use xlink:href="#L1_639" x="-350" y="0"/><use xlink:href="#L1_639" x="0" y="0"/><use xlink:href="#L1_639" x="350" y="0"/><use xlink:href="#L1_639" x="-350" y="350"/><use xlink:href="#L1_639" x="0" y="350"/><use xlink:href="#L1_639" x="350" y="350"/></pattern><rect x="0" y="0" width="100%" height="100%" fill="url(#pattern_L1_639)"/></g></svg>