<svg xmlns="http://www.w3.org/2000/svg" xmlns:xlink="http://www.w3.org/1999/xlink" xmlns:fi="http://pattern.flaticon.com/" x="0" y="0" width="700" height="350" viewBox="0 0 700 350"><rect x="0px" y="0px" width="100%" height="100%" opacity="1" fill="#ffffff"/><defs><g transform="matrix(0.14705786108970642 0 0 0.14705786108970642 305 305)" id="L1_82"><path d="M594.335,383.234l-34.953-34.943c-11.416-11.415-26.986-14.844-43.162-14.834c-16.175,0-31.746,9.137-43.151,20.553    l-120.51,120.52c-11.416,11.416-17.688,24.103-17.679,40.278c0,16.175,6.303,28.861,17.709,40.277l34.963,34.942    c11.405,11.406,26.945,20.553,43.111,20.553c16.165,0.01,31.706-3.419,43.111-14.834l120.521-120.521    c11.405-11.405,17.708-29.81,17.708-45.996C612.003,413.055,605.741,394.64,594.335,383.234z M565.776,446.706L445.255,567.227    c-3.923,3.923-9.429,3.025-14.592,3.025c-5.184,0-10.68-4.82-14.593-8.743l-34.953-34.953c-7.846-7.846-7.886-15.671-0.04-23.518    l120.51-120.52c3.924-3.923,9.46-8.743,14.644-8.743c5.173,0,10.71-0.897,14.622,3.025l34.953,34.942    C573.652,419.6,573.612,438.86,565.776,446.706z" fill="#34b9f5"/><path d="M456.338,254.102l-78.962-122.507c-10.941-16.993-32.089-33.471-51.249-39.905L66.954,4.641    c-6.212-2.097-12.515-3.217-18.616-3.217c-15.984,0.01-30.324,7.19-39.33,19.715C-0.42,34.229-2.559,51.443,3.119,68.345    l86.989,259.122c6.403,19.09,22.66,40.097,39.542,51.088l121.66,79.234c10.316,6.727,23.023,10.78,35.79,10.771    c17.547,0,34.973-6.343,46.914-18.293L448.12,336.17C469.337,314.941,472.615,279.364,456.338,254.102z M419.59,307.65    L305.483,421.757c-4.588,4.579-11.778,6.484-18.394,6.484c-4.72-0.01-9.651-1.482-13.523-3.993l-121.781-79.365    c-9.298-6.061-19.846-19.675-23.376-30.193L50.083,81.424l154.516,154.515c-10.135,22.307-6.232,49.485,12.091,67.809    c23.598,23.598,61.979,23.598,85.567,0c23.599-23.588,23.599-61.979,0-85.567c-18.817-18.817-46.923-22.367-69.553-11.173    L75.809,50.112l237.36,79.688c10.519,3.53,24.031,14.058,30.042,23.376l79.224,122.749    C428.435,285.263,427.426,299.805,419.59,307.65z M273.737,246.71c7.876,7.876,7.876,20.643,0,28.529    c-7.876,7.876-20.653,7.876-28.519,0c-7.876-7.876-7.876-20.643,0-28.529C253.084,238.834,265.861,238.834,273.737,246.71z" fill="#34b9f5"/></g><g transform="matrix(0.06535948067903519 0 0 0.06535948067903519 242.5 67.5)" id="L1_83"><path d="M469.774,387.556h-24.382c-33.616,0-56.891,22.26-56.891,55.875v25.398c0,11.215,9.103,20.316,20.318,20.316    s20.318-9.102,20.318-20.316v-25.398c0-11.174,5.079-15.238,16.254-15.238h24.382c11.216,0,20.318-9.104,20.318-20.318    S481,387.556,469.774,387.556z" fill="#34b9f5"/><path d="M556.125,387.556h-25.397c-11.216,0-20.317,9.104-20.317,20.318s9.102,20.318,20.317,20.318h25.397    c11.176,0,15.239,5.08,15.239,16.254v24.383c0,11.215,9.103,20.316,20.317,20.316c11.216,0,20.318-9.102,20.318-20.316v-24.383    C612,410.831,589.742,387.556,556.125,387.556z" fill="#34b9f5"/><path d="M591.682,509.464c-11.215,0-20.317,9.104-20.317,20.318v25.398c0,11.174-5.08,15.238-16.255,15.238h-24.382    c-11.216,0-20.317,9.102-20.317,20.318c0,11.215,9.102,20.318,20.317,20.318h24.382c33.616,0,56.891-22.26,56.891-55.875v-25.398    C612,518.567,602.908,509.464,591.682,509.464z" fill="#34b9f5"/><path d="M469.774,570.419h-25.397c-11.175,0-15.238-5.08-15.238-16.254v-24.383c0-11.215-9.103-20.318-20.318-20.318    s-20.318,9.104-20.318,20.318v24.383c0,33.615,22.259,56.891,55.875,56.891h25.397c11.216,0,20.318-9.104,20.318-20.318    C490.092,579.521,481,570.419,469.774,570.419z" fill="#34b9f5"/><path d="M402.694,278.144l-43.785-43.786l72.86-48.306c18.073-11.977,26.993-30.639,23.844-49.901    c-3.16-19.271-17.555-34.104-38.533-39.702L66.237,2.986c-5.11-1.351-10.261-2.042-15.31-2.042    c-16.163,0-30.883,7.071-40.402,19.394C0.67,33.077-2.448,50.073,1.951,66.958l92.061,352.397    c6.248,23.893,24.747,39.346,47.138,39.346c16.661,0,32.113-8.9,42.414-24.422l46.559-70.098l43.268,43.268    c11.5,11.5,27.125,17.605,43.41,17.605c16.295,0,31.93-6.562,43.42-18.053l42.394-42.395    C426.375,340.835,426.456,301.905,402.694,278.144z M149.704,411.806c-2.784,4.205-5.811,6.258-8.564,6.258    c-3.342,0-6.268-3.047-7.822-8.98L41.266,56.687c-2.367-9.072,1.849-15.106,9.661-15.106c1.503,0,3.108,0.213,4.846,0.681    l350.832,93.463c10.81,2.885,12.019,10.281,2.713,16.458l-138.834,92.051c-9.326,6.167-22.004,18.834-28.171,28.15    L149.704,411.806z M373.883,335.866l-42.394,42.395c-3.962,3.951-9.479,6.146-14.68,6.146c-5.202,0-10.749-1.748-14.691-5.699    l-49.068-49.068l23.102-34.785c3.2-4.815,11.978-13.572,16.762-16.752l31.433-20.847l49.606,49.606    C381.858,314.776,381.777,327.964,373.883,335.866z" fill="#34b9f5"/></g><path d="M572.516,284.432c-14.579,0-27.164,7.985-34.005,19.742h-96.124c142.438-74.299,156.14-227.822,156.14-282.606   c0-10.897-8.835-19.742-19.742-19.742c-10.897,0-19.742,8.844-19.742,19.742c0,50.174-13.138,194.646-154.332,256.122v-22.871   c0-10.897-8.845-19.742-19.742-19.742H246.774c-10.898,0-19.742,8.844-19.742,19.742v49.355H73.489   c-6.84-11.756-19.426-19.742-34.005-19.742C17.679,284.432,0,302.111,0,323.916c0,21.805,17.679,39.483,39.484,39.483   c14.58,0,27.165-7.985,34.005-19.741h60.154C18.439,399.34,0,500.557,0,590.432c0,10.897,8.844,19.742,19.742,19.742   c10.898,0,19.742-8.845,19.742-19.742c0-103.25,24.688-201.684,187.548-236.508v39.089c0,10.897,8.844,19.742,19.742,19.742   h138.193c10.897,0,19.742-8.845,19.742-19.742v-49.354h133.801c6.841,11.756,19.426,19.741,34.005,19.741   c21.806,0,39.484-17.679,39.484-39.483C612,302.111,594.321,284.432,572.516,284.432z M365.226,373.271h-98.709v-98.709h98.709   V373.271z" transform="matrix(0.03267974033951759 0 0 0.03267974033951759 340 165)" id="L1_84" fill="#34b9f5"/><path d="M600.542,155.372L460.365,15.186c-7.474-7.474-17.584-9.04-28.17-9.04c-10.605,0-20.716,6.681-28.189,14.145   L60.077,354.307c-10.209,10.209-21.737,27.258-25.236,41.254L1.189,566.167c-2.656,10.646-0.833,20.716,5.154,28.368   c5.59,7.166,14.343,11.29,24.007,11.29c3.033,0,6.77,0.188,9.902-0.595l172.4-31.838c13.996-3.499,33.453-12.628,43.652-22.848   l343.938-334.006c7.474-7.474,11.736-19.993,11.746-30.588C611.99,175.344,608.016,162.835,600.542,155.372z M160.992,421.798   l329.714-320.199l28.031,28.031L189.033,449.839L160.992,421.798z M434.732,45.625l27.933,27.933L132.96,393.767l-27.903-27.902   L434.732,45.625z M203.336,535.222L85.105,556.176l-33.87-33.87L73.31,405.175c0.753-3.013,2.597-6.611,4.837-10.159   l136.162,136.172C210.324,533.001,206.349,534.468,203.336,535.222z M245.244,506.05l-28.17-28.17l329.715-320.209l28.14,28.131   L245.244,506.05z" transform="matrix(0.03268027305603027 0 0 0.03268027305603027 165 165)" id="L1_85" fill="#34b9f5"/><g transform="matrix(-0.09803857654333115 0 0 0.09803857654333115 117.49960884451866 57.500001124954395)" id="L1_86"><path d="M594.335,383.234l-34.953-34.943c-11.416-11.415-26.986-14.844-43.162-14.834c-16.175,0-31.746,9.137-43.151,20.553    l-120.51,120.52c-11.416,11.416-17.688,24.103-17.679,40.278c0,16.175,6.303,28.861,17.709,40.277l34.963,34.942    c11.405,11.406,26.945,20.553,43.111,20.553c16.165,0.01,31.706-3.419,43.111-14.834l120.521-120.521    c11.405-11.405,17.708-29.81,17.708-45.996C612.003,413.055,605.741,394.64,594.335,383.234z M565.776,446.706L445.255,567.227    c-3.923,3.923-9.429,3.025-14.592,3.025c-5.184,0-10.68-4.82-14.593-8.743l-34.953-34.953c-7.846-7.846-7.886-15.671-0.04-23.518    l120.51-120.52c3.924-3.923,9.46-8.743,14.644-8.743c5.173,0,10.71-0.897,14.622,3.025l34.953,34.942    C573.652,419.6,573.612,438.86,565.776,446.706z" fill="#34b9f5"/><path d="M456.338,254.102l-78.962-122.507c-10.941-16.993-32.089-33.471-51.249-39.905L66.954,4.641    c-6.212-2.097-12.515-3.217-18.616-3.217c-15.984,0.01-30.324,7.19-39.33,19.715C-0.42,34.229-2.559,51.443,3.119,68.345    l86.989,259.122c6.403,19.09,22.66,40.097,39.542,51.088l121.66,79.234c10.316,6.727,23.023,10.78,35.79,10.771    c17.547,0,34.973-6.343,46.914-18.293L448.12,336.17C469.337,314.941,472.615,279.364,456.338,254.102z M419.59,307.65    L305.483,421.757c-4.588,4.579-11.778,6.484-18.394,6.484c-4.72-0.01-9.651-1.482-13.523-3.993l-121.781-79.365    c-9.298-6.061-19.846-19.675-23.376-30.193L50.083,81.424l154.516,154.515c-10.135,22.307-6.232,49.485,12.091,67.809    c23.598,23.598,61.979,23.598,85.567,0c23.599-23.588,23.599-61.979,0-85.567c-18.817-18.817-46.923-22.367-69.553-11.173    L75.809,50.112l237.36,79.688c10.519,3.53,24.031,14.058,30.042,23.376l79.224,122.749    C428.435,285.263,427.426,299.805,419.59,307.65z M273.737,246.71c7.876,7.876,7.876,20.643,0,28.529    c-7.876,7.876-20.653,7.876-28.519,0c-7.876-7.876-7.876-20.643,0-28.529C253.084,238.834,265.861,238.834,273.737,246.71z" fill="#34b9f5"/></g><path d="M572.516,284.432c-14.579,0-27.164,7.985-34.005,19.742h-96.124c142.438-74.299,156.14-227.822,156.14-282.606   c0-10.897-8.835-19.742-19.742-19.742c-10.897,0-19.742,8.844-19.742,19.742c0,50.174-13.138,194.646-154.332,256.122v-22.871   c0-10.897-8.845-19.742-19.742-19.742H246.774c-10.898,0-19.742,8.844-19.742,19.742v49.355H73.489   c-6.84-11.756-19.426-19.742-34.005-19.742C17.679,284.432,0,302.111,0,323.916c0,21.805,17.679,39.483,39.484,39.483   c14.58,0,27.165-7.985,34.005-19.741h60.154C18.439,399.34,0,500.557,0,590.432c0,10.897,8.844,19.742,19.742,19.742   c10.898,0,19.742-8.845,19.742-19.742c0-103.25,24.688-201.684,187.548-236.508v39.089c0,10.897,8.844,19.742,19.742,19.742   h138.193c10.897,0,19.742-8.845,19.742-19.742v-49.354h133.801c6.841,11.756,19.426,19.741,34.005,19.741   c21.806,0,39.484-17.679,39.484-39.483C612,302.111,594.321,284.432,572.516,284.432z M365.226,373.271h-98.709v-98.709h98.709   V373.271z" transform="matrix(-0.09803921729326248 0 0 0.09803921729326248 205.00000098347664 232.5)" id="L1_87" fill="#34b9f5"/></defs><g fi:class="KUsePattern"><pattern id="pattern_L1_82" width="350" height="350" patternUnits="userSpaceOnUse"><use xlink:href="#L1_82" x="-350" y="-350"/><use xlink:href="#L1_82" x="0" y="-350"/><use xlink:href="#L1_82" x="350" y="-350"/><use xlink:href="#L1_82" x="-350" y="0"/><use xlink:href="#L1_82" x="0" y="0"/><use xlink:href="#L1_82" x="350" y="0"/><use xlink:href="#L1_82" x="-350" y="350"/><use xlink:href="#L1_82" x="0" y="350"/><use xlink:href="#L1_82" x="350" y="350"/></pattern><rect x="0" y="0" width="100%" height="100%" fill="url(#pattern_L1_82)"/></g><g fi:class="KUsePattern"><pattern id="pattern_L1_83" width="350" height="350" patternUnits="userSpaceOnUse"><use xlink:href="#L1_83" x="-350" y="-350"/><use xlink:href="#L1_83" x="0" y="-350"/><use xlink:href="#L1_83" x="350" y="-350"/><use xlink:href="#L1_83" x="-350" y="0"/><use xlink:href="#L1_83" x="0" y="0"/><use xlink:href="#L1_83" x="350" y="0"/><use xlink:href="#L1_83" x="-350" y="350"/><use xlink:href="#L1_83" x="0" y="350"/><use xlink:href="#L1_83" x="350" y="350"/></pattern><rect x="0" y="0" width="100%" height="100%" fill="url(#pattern_L1_83)"/></g><g fi:class="KUsePattern"><pattern id="pattern_L1_84" width="350" height="350" patternUnits="userSpaceOnUse"><use xlink:href="#L1_84" x="-350" y="-350"/><use xlink:href="#L1_84" x="0" y="-350"/><use xlink:href="#L1_84" x="350" y="-350"/><use xlink:href="#L1_84" x="-350" y="0"/><use xlink:href="#L1_84" x="0" y="0"/><use xlink:href="#L1_84" x="350" y="0"/><use xlink:href="#L1_84" x="-350" y="350"/><use xlink:href="#L1_84" x="0" y="350"/><use xlink:href="#L1_84" x="350" y="350"/></pattern><rect x="0" y="0" width="100%" height="100%" fill="url(#pattern_L1_84)"/></g><g fi:class="KUsePattern"><pattern id="pattern_L1_85" width="350" height="350" patternUnits="userSpaceOnUse"><use xlink:href="#L1_85" x="-350" y="-350"/><use xlink:href="#L1_85" x="0" y="-350"/><use xlink:href="#L1_85" x="350" y="-350"/><use xlink:href="#L1_85" x="-350" y="0"/><use xlink:href="#L1_85" x="0" y="0"/><use xlink:href="#L1_85" x="350" y="0"/><use xlink:href="#L1_85" x="-350" y="350"/><use xlink:href="#L1_85" x="0" y="350"/><use xlink:href="#L1_85" x="350" y="350"/></pattern><rect x="0" y="0" width="100%" height="100%" fill="url(#pattern_L1_85)"/></g><g fi:class="KUsePattern"><pattern id="pattern_L1_86" width="350" height="350" patternUnits="userSpaceOnUse"><use xlink:href="#L1_86" x="-350" y="-350"/><use xlink:href="#L1_86" x="0" y="-350"/><use xlink:href="#L1_86" x="350" y="-350"/><use xlink:href="#L1_86" x="-350" y="0"/><use xlink:href="#L1_86" x="0" y="0"/><use xlink:href="#L1_86" x="350" y="0"/><use xlink:href="#L1_86" x="-350" y="350"/><use xlink:href="#L1_86" x="0" y="350"/><use xlink:href="#L1_86" x="350" y="350"/></pattern><rect x="0" y="0" width="100%" height="100%" fill="url(#pattern_L1_86)"/></g><g fi:class="KUsePattern"><pattern id="pattern_L1_87" width="350" height="350" patternUnits="userSpaceOnUse"><use xlink:href="#L1_87" x="-350" y="-350"/><use xlink:href="#L1_87" x="0" y="-350"/><use xlink:href="#L1_87" x="350" y="-350"/><use xlink:href="#L1_87" x="-350" y="0"/><use xlink:href="#L1_87" x="0" y="0"/><use xlink:href="#L1_87" x="350" y="0"/><use xlink:href="#L1_87" x="-350" y="350"/><use xlink:href="#L1_87" x="0" y="350"/><use xlink:href="#L1_87" x="350" y="350"/></pattern><rect x="0" y="0" width="100%" height="100%" fill="url(#pattern_L1_87)"/></g></svg>